<mxfile host="Electron" agent="Mozilla/5.0 (Windows NT 10.0; Win64; x64) AppleWebKit/537.36 (KHTML, like Gecko) draw.io/26.2.15 Chrome/134.0.6998.205 Electron/35.2.1 Safari/537.36" version="26.2.15">
  <diagram name="Page-1" id="Tmt94gA-0ZJjF-nK8y2k">
    <mxGraphModel dx="894" dy="548" grid="1" gridSize="10" guides="1" tooltips="1" connect="1" arrows="1" fold="1" page="1" pageScale="1" pageWidth="850" pageHeight="1100" math="0" shadow="0">
      <root>
        <mxCell id="0" />
        <mxCell id="1" parent="0" />
        <mxCell id="ofb7XT26KEXKw1no33_Y-1" value="AC Supply" style="rounded=1;whiteSpace=wrap;html=1;fillColor=#dae8fc;strokeColor=#6c8ebf;" vertex="1" parent="1">
          <mxGeometry x="26.25" y="230" width="150" height="90" as="geometry" />
        </mxCell>
        <mxCell id="ofb7XT26KEXKw1no33_Y-2" value="Meter Readings" style="rounded=1;whiteSpace=wrap;html=1;fillColor=#d5e8d4;strokeColor=#82b366;" vertex="1" parent="1">
          <mxGeometry x="226.25" y="230" width="140" height="90" as="geometry" />
        </mxCell>
        <mxCell id="ofb7XT26KEXKw1no33_Y-3" value="WiFi" style="rounded=1;whiteSpace=wrap;html=1;fillColor=#ffe6cc;strokeColor=#d79b00;" vertex="1" parent="1">
          <mxGeometry x="421.25" y="230" width="140" height="90" as="geometry" />
        </mxCell>
        <mxCell id="ofb7XT26KEXKw1no33_Y-4" value="Backend" style="rounded=1;whiteSpace=wrap;html=1;fillColor=#fff2cc;strokeColor=#d6b656;" vertex="1" parent="1">
          <mxGeometry x="610" y="230" width="160" height="90" as="geometry" />
        </mxCell>
        <mxCell id="ofb7XT26KEXKw1no33_Y-5" value="Charge authorization" style="rounded=1;whiteSpace=wrap;html=1;fillColor=#e1d5e7;strokeColor=#9673a6;" vertex="1" parent="1">
          <mxGeometry x="26.25" y="360" width="150" height="90" as="geometry" />
        </mxCell>
        <mxCell id="ofb7XT26KEXKw1no33_Y-6" value="" style="rounded=1;whiteSpace=wrap;html=1;fillColor=#ffe6cc;strokeColor=#d79b00;" vertex="1" parent="1">
          <mxGeometry x="220" y="1210" width="370" height="470" as="geometry" />
        </mxCell>
        <mxCell id="ofb7XT26KEXKw1no33_Y-7" value="Wifi provisioning" style="rounded=1;whiteSpace=wrap;html=1;" vertex="1" parent="1">
          <mxGeometry x="265" y="1340" width="120" height="60" as="geometry" />
        </mxCell>
        <mxCell id="ofb7XT26KEXKw1no33_Y-8" value="ENABLE_WIFI_&lt;div&gt;PROVISIONING&lt;div&gt;&lt;br&gt;&lt;/div&gt;&lt;/div&gt;" style="rounded=1;whiteSpace=wrap;html=1;" vertex="1" parent="1">
          <mxGeometry x="265" y="1260" width="120" height="60" as="geometry" />
        </mxCell>
        <mxCell id="ofb7XT26KEXKw1no33_Y-9" value="Wifi connect" style="rounded=1;whiteSpace=wrap;html=1;" vertex="1" parent="1">
          <mxGeometry x="265" y="1420" width="120" height="60" as="geometry" />
        </mxCell>
        <mxCell id="ofb7XT26KEXKw1no33_Y-10" value="Wifi disconnect" style="rounded=1;whiteSpace=wrap;html=1;" vertex="1" parent="1">
          <mxGeometry x="265" y="1500" width="120" height="60" as="geometry" />
        </mxCell>
        <mxCell id="ofb7XT26KEXKw1no33_Y-11" value="Wifi reconnect" style="rounded=1;whiteSpace=wrap;html=1;" vertex="1" parent="1">
          <mxGeometry x="265" y="1580" width="120" height="60" as="geometry" />
        </mxCell>
        <mxCell id="ofb7XT26KEXKw1no33_Y-12" value="Wifi disconnect&lt;div&gt;reason&lt;/div&gt;" style="rounded=1;whiteSpace=wrap;html=1;" vertex="1" parent="1">
          <mxGeometry x="410" y="1510" width="145" height="40" as="geometry" />
        </mxCell>
        <mxCell id="ofb7XT26KEXKw1no33_Y-13" value="&lt;b&gt;&lt;font style=&quot;font-size: 21px;&quot;&gt;WIFI config&lt;/font&gt;&lt;/b&gt;" style="text;html=1;align=center;verticalAlign=middle;resizable=0;points=[];autosize=1;strokeColor=none;fillColor=none;" vertex="1" parent="1">
          <mxGeometry x="320" y="1160" width="140" height="40" as="geometry" />
        </mxCell>
        <mxCell id="ofb7XT26KEXKw1no33_Y-14" value="" style="rounded=1;whiteSpace=wrap;html=1;fillColor=#d5e8d4;strokeColor=#82b366;" vertex="1" parent="1">
          <mxGeometry x="202.5" y="2280" width="417.5" height="580" as="geometry" />
        </mxCell>
        <mxCell id="ofb7XT26KEXKw1no33_Y-15" value="AC connected check" style="rounded=1;whiteSpace=wrap;html=1;" vertex="1" parent="1">
          <mxGeometry x="240" y="2330" width="120" height="60" as="geometry" />
        </mxCell>
        <mxCell id="ofb7XT26KEXKw1no33_Y-16" value="AC read voltage" style="rounded=1;whiteSpace=wrap;html=1;" vertex="1" parent="1">
          <mxGeometry x="240" y="2500" width="120" height="60" as="geometry" />
        </mxCell>
        <mxCell id="ofb7XT26KEXKw1no33_Y-17" value="Live detect" style="rounded=1;whiteSpace=wrap;html=1;fillColor=#f5f5f5;fontColor=#333333;strokeColor=#666666;" vertex="1" parent="1">
          <mxGeometry x="400" y="2290" width="80" height="30" as="geometry" />
        </mxCell>
        <mxCell id="ofb7XT26KEXKw1no33_Y-18" value="Neutral&amp;nbsp;&lt;div&gt;detect&lt;/div&gt;" style="rounded=1;whiteSpace=wrap;html=1;fillColor=#f5f5f5;fontColor=#333333;strokeColor=#666666;" vertex="1" parent="1">
          <mxGeometry x="400" y="2330" width="80" height="30" as="geometry" />
        </mxCell>
        <mxCell id="ofb7XT26KEXKw1no33_Y-19" value="Earth&lt;div&gt;detect&lt;/div&gt;" style="rounded=1;whiteSpace=wrap;html=1;fillColor=#f5f5f5;fontColor=#333333;strokeColor=#666666;" vertex="1" parent="1">
          <mxGeometry x="400" y="2380" width="80" height="30" as="geometry" />
        </mxCell>
        <mxCell id="ofb7XT26KEXKw1no33_Y-20" value="L-N swap" style="rounded=1;whiteSpace=wrap;html=1;fillColor=#f5f5f5;fontColor=#333333;strokeColor=#666666;" vertex="1" parent="1">
          <mxGeometry x="400" y="2430" width="80" height="30" as="geometry" />
        </mxCell>
        <mxCell id="ofb7XT26KEXKw1no33_Y-21" value="AC read current" style="rounded=1;whiteSpace=wrap;html=1;" vertex="1" parent="1">
          <mxGeometry x="240" y="2580" width="120" height="60" as="geometry" />
        </mxCell>
        <mxCell id="ofb7XT26KEXKw1no33_Y-22" value="AC calculate power" style="rounded=1;whiteSpace=wrap;html=1;" vertex="1" parent="1">
          <mxGeometry x="240" y="2660" width="120" height="60" as="geometry" />
        </mxCell>
        <mxCell id="ofb7XT26KEXKw1no33_Y-23" value="AC calculate enegy&amp;nbsp;&lt;div&gt;consumption&lt;/div&gt;" style="rounded=1;whiteSpace=wrap;html=1;" vertex="1" parent="1">
          <mxGeometry x="240" y="2750" width="120" height="60" as="geometry" />
        </mxCell>
        <mxCell id="ofb7XT26KEXKw1no33_Y-24" value="AC compose meter readings" style="rounded=1;whiteSpace=wrap;html=1;" vertex="1" parent="1">
          <mxGeometry x="400" y="2500" width="120" height="60" as="geometry" />
        </mxCell>
        <mxCell id="ofb7XT26KEXKw1no33_Y-25" value="&lt;b&gt;&lt;font style=&quot;font-size: 21px;&quot;&gt;AC supply and metering&lt;/font&gt;&lt;/b&gt;" style="text;html=1;align=center;verticalAlign=middle;resizable=0;points=[];autosize=1;strokeColor=none;fillColor=none;" vertex="1" parent="1">
          <mxGeometry x="255" y="2230" width="270" height="40" as="geometry" />
        </mxCell>
        <mxCell id="ofb7XT26KEXKw1no33_Y-26" value="&lt;font style=&quot;font-size: 27px;&quot;&gt;Lite EVSE key sub-systems&lt;/font&gt;" style="text;html=1;align=center;verticalAlign=middle;resizable=0;points=[];autosize=1;strokeColor=none;fillColor=none;fontStyle=1" vertex="1" parent="1">
          <mxGeometry x="202.5" y="110" width="360" height="50" as="geometry" />
        </mxCell>
      </root>
    </mxGraphModel>
  </diagram>
</mxfile>
